<svg xmlns="http://www.w3.org/2000/svg" viewBox="0 0 512 512">
  <defs>
    <linearGradient id="gold" x1="0%" y1="0%" x2="100%" y2="100%">
      <stop offset="0%" style="stop-color:#f4d03f"/>
      <stop offset="50%" style="stop-color:#d4af37"/>
      <stop offset="100%" style="stop-color:#b8942d"/>
    </linearGradient>
  </defs>
  <!-- Background circle -->
  <circle cx="256" cy="256" r="256" fill="#0a0a0a"/>
  <!-- Spartan helmet shape (simplified) -->
  <path
    d="M256 80
       C180 80 120 140 120 220
       L120 340
       C120 380 150 420 200 420
       L220 420
       L220 380
       C220 340 240 320 256 320
       C272 320 292 340 292 380
       L292 420
       L312 420
       C362 420 392 380 392 340
       L392 220
       C392 140 332 80 256 80
       Z
       M180 200
       L180 300
       L200 300
       L200 200
       Z
       M312 200
       L332 200
       L332 300
       L312 300
       Z"
    fill="url(#gold)"
  />
  <!-- Horizontal crest line -->
  <rect x="140" y="140" width="232" height="20" rx="10" fill="url(#gold)"/>
</svg>
